# xmcd CD database file
#
# Track frame offsets:
#	150
#	19132
#	39521
#	53377
#	69992
#	86963
#	97886
#	113058
#	125909
#	142369
#	155226
#	169242
#	183804
#	197924
#	217609
#	230346
#	243737
#	266695
#	282593
#	298540
#
# Disc length: 4230 seconds
#
# Revision: 0
# Processed by: cddbd v1.5.2PL0 Copyright (c) Steve Scherf et al.
# Submitted via: CDex 1.51
#
DISCID=2e108414
DTITLE=Various Artist - The Ultimate Collection Country 100 Hits [CD04)
DYEAR=2009
DGENRE=Country
TTITLE0=Nanci Griffith - From A Distance
TTITLE1=Steve Earle - Copperhead Road
TTITLE2=Patty Loveless - If My Heart Had Windows
TTITLE3=Randy Travis - I Told You So
TTITLE4=Kathy Mattea - Where've you Been
TTITLE5=Toby Keith - You Ain't Much fun (Live)
TTITLE6=Whiskeytown - Don't Be Sad
TTITLE7=Dwight Yoakam and Buck Owens - Streets Of Bakersfield
TTITLE8=Pam Tillis - One Of These Things
TTITLE9=Randy Travis - Honky Tonk Moon
TTITLE10=Rita Remington - Angel Of The Morning
TTITLE11=Shelby Lynne - Leavin'
TTITLE12=Soggy Bottom Boys - I Am A Man Of Constant Sorrow
TTITLE13=John Stewart - Gold
TTITLE14=Holly Dunn - You Really Had Me Going
TTITLE15=John Anderson - 1959
TTITLE16=Alan Jackson - Where Were You When The World Stopped Turning
TTITLE17=Willie Nelson - Always On My Mind
TTITLE18=Toby Keith - Courtesy Of THe Red, White and Blue
TTITLE19=Kris Kristofferson - Me and Bobby McGee
EXTD=YEAR: 2009
EXTT0=
EXTT1=
EXTT2=
EXTT3=
EXTT4=
EXTT5=
EXTT6=
EXTT7=
EXTT8=
EXTT9=
EXTT10=
EXTT11=
EXTT12=
EXTT13=
EXTT14=
EXTT15=
EXTT16=
EXTT17=
EXTT18=
EXTT19=
PLAYORDER=
